<svg width="120" height="120" viewBox="0 0 120 120" fill="none" xmlns="http://www.w3.org/2000/svg">
<g id="Isolation_Mode" clip-path="url(#clip0_803_44)">
<path id="Vector" d="M48.5471 59.9089C47.4641 59.1124 46.7549 58.7176 46.2023 58.1659C31.7781 43.7649 17.3655 29.3521 2.96261 14.9297C-0.318618 11.644 -0.899701 7.54296 1.34644 3.97902C3.92526 -0.112772 9.31006 -1.2494 13.2734 1.51201C14.131 2.10953 14.8855 2.86993 15.6295 3.61336C29.8612 17.8339 44.0864 32.0609 58.2996 46.2998C58.8067 46.8078 59.1774 47.4519 59.7285 48.1889C60.6082 47.3488 61.1742 46.8298 61.7167 46.2872C76.1295 31.8746 90.5452 17.4651 104.945 3.03946C107.176 0.804686 109.72 -0.404159 112.942 0.167408C118.998 1.24156 121.946 7.99786 118.552 13.1268C117.977 13.9966 117.224 14.7634 116.482 15.5065C102.219 29.7889 87.9449 44.0603 73.6752 58.3361C73.171 58.8405 72.6886 59.3668 72.0925 59.9913C72.6939 60.6234 73.2148 61.195 73.761 61.7414C88.1236 76.1107 102.482 90.4849 116.861 104.837C119.035 107.006 120.33 109.464 119.872 112.611C119.383 115.973 117.535 118.297 114.343 119.452C111.135 120.612 108.249 119.887 105.715 117.682C104.92 116.991 104.207 116.206 103.461 115.46C89.6093 101.605 75.7577 87.751 61.9116 73.8912C61.3539 73.3329 60.8494 72.7215 60.1491 71.9451C59.4541 72.6078 58.8952 73.119 58.3601 73.654C43.9467 88.066 29.5265 102.471 15.1328 116.903C12.4864 119.556 9.4576 120.711 5.81072 119.517C0.399436 117.745 -1.68976 111.246 1.62557 106.606C2.1578 105.861 2.82283 105.203 3.47343 104.552C17.6928 90.3195 31.9168 76.0913 46.1507 61.873C46.7076 61.3167 47.3707 60.8666 48.5471 59.9089Z" fill="black"/>
</g>
<defs>
<clipPath id="clip0_803_44">
<rect width="119.984" height="120" fill="white"/>
</clipPath>
</defs>
</svg>
