<svg width="150" height="150" viewBox="0 0 150 150" fill="none" xmlns="http://www.w3.org/2000/svg">
<g id="Layer_1" clip-path="url(#clip0_803_34)">
<path id="Vector" d="M149.225 75.2312C149.225 88.2944 149.681 101.378 149.113 114.416C148.35 131.952 134.332 147.234 116.909 148.946C104.43 150.172 91.786 149.788 79.2134 149.944C75.9348 149.985 74.2025 148.062 74.2825 144.569C74.3613 141.124 76.3668 139.886 79.3642 139.867C89.4753 139.803 99.5869 139.839 109.698 139.837C127.427 139.834 139.737 127.885 139.84 110.224C139.976 86.7349 139.967 63.2443 139.852 39.7551C139.766 22.2777 127.196 10.0274 109.676 10.0274C86.1866 10.0274 62.689 10.3883 39.21 9.88331C25.5165 9.58886 9.69241 21.3628 9.931 39.0037C10.2593 63.2667 9.99527 87.5376 10.022 111.805C10.039 127.25 22.6213 139.744 38.1837 139.842C39.2726 139.849 40.3616 139.841 41.4505 139.849C44.8694 139.876 47.3062 141.237 47.2898 144.964C47.273 148.761 44.5768 149.933 41.3171 149.992C17.325 150.424 0.399652 132.728 0.200113 112.551C-0.0491239 87.3522 -0.0920958 62.1466 0.224028 36.9496C0.47233 17.17 17.2065 0.683783 37.6488 0.327677C62.2197 -0.100547 86.8101 -0.116802 111.38 0.324688C133.54 0.722831 149.19 17.275 149.471 39.7633C149.619 51.5841 149.497 63.4083 149.497 75.2308C149.406 75.2308 149.316 75.231 149.225 75.2312Z" fill="black"/>
<path id="Vector_2" d="M110.338 75.2673C110.287 95.2651 94.4578 110.997 74.4811 110.826C55.1626 110.661 38.4924 94.6453 38.9673 73.8264C39.3942 55.1155 55.9257 38.8324 74.9502 39.0792C95.0155 39.3394 110.39 55.0613 110.338 75.2673ZM48.9741 75.0834C49.0728 89.3062 60.6438 100.92 74.7645 100.969C88.9053 101.018 100.82 88.9082 100.659 74.6522C100.502 60.7561 88.2986 48.7032 74.5572 48.8721C60.6442 49.0431 48.8772 61.0991 48.9741 75.0834Z" fill="black"/>
<path id="Vector_3" d="M114.459 28.5725C118.246 28.5636 121.183 31.4432 121.272 35.2547C121.364 39.1208 118.137 42.5119 114.388 42.4904C110.974 42.4707 107.258 38.5827 107.367 35.1433C107.476 31.6857 110.827 28.5811 114.459 28.5725Z" fill="black"/>
</g>
<defs>
<clipPath id="clip0_803_34">
<rect width="149.544" height="150" fill="white"/>
</clipPath>
</defs>
</svg>
