<svg width="151" height="150" viewBox="0 0 151 150" fill="none" xmlns="http://www.w3.org/2000/svg">
<g id="Layer_1" clip-path="url(#clip0_803_29)">
<path id="Vector" d="M150.283 75.5854C150.284 87.5732 150.166 99.5625 150.31 111.549C150.56 132.424 131.877 150.811 111.739 149.973C101.326 149.539 90.88 149.841 80.4499 149.932C77.0663 149.961 74.422 149.25 74.48 145.259C74.5363 141.378 77.1252 140.479 80.5152 140.502C90.3229 140.568 100.131 140.532 109.94 140.518C127.708 140.494 140.375 128.478 140.608 110.644C140.92 86.8281 140.86 63.004 140.66 39.1862C140.501 20.1336 124.239 9.16609 110.094 9.54465C86.2917 10.1819 62.4595 9.70269 38.6396 9.72551C22.8937 9.74047 10.0929 22.3686 10.0396 38.0406C9.95638 62.4824 9.91299 86.9249 9.97041 111.367C10.0088 127.679 22.5118 140.197 38.8494 140.515C40.4055 140.545 42.3307 140.005 43.4319 140.726C45.1068 141.823 47.2207 143.769 47.2575 145.397C47.2904 146.86 44.913 149.52 43.3655 149.705C19.9919 152.507 0.0461974 134.658 0.0198256 111.17C-0.00729433 87.039 -0.00523695 62.9079 0.0177682 38.7768C0.0381549 17.3543 17.1258 0.120938 38.5032 0.0618353C62.9456 -0.00568396 87.3887 -0.0378538 111.831 0.071C134.497 0.171811 150.428 18.7406 150.298 38.6881C150.217 50.9867 150.283 63.2865 150.283 75.5854Z" fill="black"/>
<path id="Vector_2" d="M82.3415 64.9548C86.695 62.2617 92.6653 60.9814 98.9758 62.7457C108.439 65.3917 113.595 72.4939 113.854 83.332C114.046 91.4218 113.858 99.5201 113.91 107.614C113.931 110.942 112.486 113.2 109.138 113.265C105.71 113.332 104.328 111.049 104.352 107.711C104.408 100.084 104.764 92.4304 104.268 84.8354C103.581 74.3311 99.9025 72.1601 93.0479 71.6891C86.9858 71.2726 80.8054 77.8693 80.419 84.9515C80.0379 91.9372 80.2103 98.9529 80.1317 105.955C80.116 107.355 80.6051 109.18 79.9118 110.061C78.6568 111.656 76.7303 113.583 75.0006 113.667C73.6678 113.733 71.0165 111.214 70.9875 109.801C70.6869 95.1985 70.7022 80.5854 70.9428 65.9805C70.9682 64.4372 73.1054 61.5844 74.0662 61.6658C76.4672 61.8691 78.7548 63.4104 82.3415 64.9548Z" fill="black"/>
<path id="Vector_3" d="M46.8318 87.743C46.8322 94.4145 46.7933 101.086 46.8487 107.757C46.8767 111.137 45.9444 113.702 42.0118 113.631C38.1149 113.561 37.2757 110.998 37.2925 107.612C37.3595 94.1142 37.3543 80.6159 37.2963 67.118C37.2815 63.6888 38.3656 61.1855 42.1416 61.1949C46.0368 61.2046 46.859 63.9645 46.8419 67.2634C46.8066 74.0897 46.8313 80.9165 46.8318 87.743Z" fill="black"/>
<path id="Vector_4" d="M36.3809 42.4914C36.4159 38.4264 39.1363 35.7201 42.3129 35.9471C45.7448 36.1923 47.6194 38.0526 47.6666 41.606C47.7187 45.5341 45.5787 47.162 41.8992 47.1089C38.3513 47.0577 36.6994 45.0037 36.3809 42.4914Z" fill="black"/>
</g>
<defs>
<clipPath id="clip0_803_29">
<rect width="150.312" height="150" fill="white"/>
</clipPath>
</defs>
</svg>
