<svg width="114" height="150" viewBox="0 0 114 150" fill="none" xmlns="http://www.w3.org/2000/svg">
<g id="Layer_1" clip-path="url(#clip0_803_41)">
<path id="Vector" d="M57.5688 138.072C64.4007 129.784 71.5947 121.599 78.1767 112.948C88.4887 99.3943 97.5531 85.0732 102.109 68.3926C106.145 53.6133 103.086 40.2003 94.1621 27.9544C93.894 27.5863 93.5698 27.2572 93.3212 26.8774C91.5937 24.2384 91.4384 21.4828 94.0902 19.5971C96.7264 17.7226 99.2065 18.7726 101.153 21.2761C109.46 31.9583 113.389 44.0436 113.093 57.571C112.738 73.7907 105.827 87.7316 97.7441 101.155C87.6066 117.988 75.1555 133.078 61.5385 147.208C58.089 150.787 55.3508 150.956 52.2418 147.538C34.0234 127.507 17.1124 106.57 6.02649 81.5099C-2.58417 62.0448 -2.45137 42.9386 9.57488 25.1881C22.9501 5.44663 42.2052 -2.42505 65.8803 0.642664C69.1897 1.07153 72.0265 2.25578 71.6416 6.20111C71.2512 10.2024 68.0437 10.2169 65.0802 9.84636C51.567 8.15736 39.068 10.5454 28.1678 19.0782C11.0464 32.4806 3.95495 54.3333 14.6543 77.8349C24.7617 100.036 39.5092 119.021 55.6441 137.046C55.925 137.36 56.4268 137.476 57.5688 138.072Z" fill="black"/>
<path id="Vector_2" d="M81.3158 56.5946C81.6189 68.6208 72.6949 81.4679 56.9725 81.38C36.9357 81.2682 26.919 62.1992 34.447 45.4151C35.9107 42.1517 38.303 40.4796 41.6514 42.1688C44.8808 43.798 44.5493 46.4217 43.0672 49.5151C39.0511 57.8965 42.7913 67.442 51.0603 70.702C59.2025 73.912 68.4208 69.5889 71.2175 61.2486C74.2631 52.1653 68.3614 42.8244 58.7673 41.4366C57.1467 41.202 55.0504 41.0831 54.1209 40.055C52.9887 38.8023 51.9735 36.2645 52.5259 34.9766C53.1682 33.4792 55.5471 31.8347 57.2005 31.8046C69.9417 31.5725 81.8408 42.777 81.3158 56.5946Z" fill="black"/>
</g>
<defs>
<clipPath id="clip0_803_41">
<rect width="113.109" height="150" fill="white"/>
</clipPath>
</defs>
</svg>
