<svg width="150" height="112" viewBox="0 0 150 112" fill="none" xmlns="http://www.w3.org/2000/svg">
<g id="Layer_1" clip-path="url(#clip0_803_27)">
<path id="Vector" d="M140.076 30.5395C131.831 36.2149 124.713 41.0973 117.613 46.005C104.611 54.9922 91.6985 64.1141 78.5217 72.8376C76.8875 73.9195 73.2606 73.8401 71.5944 72.735C57.6108 63.4609 43.8655 53.8275 30.0586 44.2875C27.1627 42.2867 25.7465 39.5519 27.9194 36.4493C30.174 33.2296 33.3622 34.1075 36.0782 35.9718C47.7819 44.0054 59.4097 52.1494 71.0719 60.2435C72.3816 61.1525 73.7346 61.9989 75.2026 62.963C93.2193 50.493 111.119 38.0971 129.028 25.7145C132.743 23.1461 136.367 20.4095 140.278 18.18C142.197 17.0864 145.343 15.8685 146.733 16.704C148.46 17.7417 149.784 20.8298 149.828 23.0607C150.1 36.9596 149.967 50.8665 149.966 64.7706C149.965 72.8545 149.975 80.9383 149.952 89.0222C149.911 103.882 142.835 111.085 127.993 111.115C97.2743 111.176 66.5555 111.157 35.8368 111.114C29.7054 111.105 23.5338 111.235 17.452 110.609C6.91216 109.523 0.335917 102.606 0.216109 91.903C-0.0553527 67.6549 -0.10079 43.3978 0.25242 19.1515C0.420385 7.63085 8.89511 0.0555594 20.4551 0.0375008C50.527 -0.00949044 80.5994 -0.0467727 110.67 0.149348C113.038 0.164688 116.386 1.37092 117.551 3.15271C119.983 6.87161 117.088 10.3866 111.935 10.4385C103.205 10.5264 94.4741 10.4629 85.7436 10.4629C64.0789 10.4629 42.4142 10.4548 20.7495 10.4674C13.5119 10.4715 10.227 13.7881 10.2212 21.1313C10.2029 44.0894 10.2015 67.0475 10.2181 90.0055C10.2235 97.5565 13.5168 100.921 21.122 100.929C57.1759 100.966 93.23 100.963 129.284 100.93C135.713 100.924 139.915 97.848 139.983 92.1995C140.223 72.182 140.076 52.1601 140.076 30.5395Z" fill="black"/>
</g>
<defs>
<clipPath id="clip0_803_27">
<rect width="150" height="111.153" fill="white"/>
</clipPath>
</defs>
</svg>
