<svg width="132" height="150" viewBox="0 0 132 150" fill="none" xmlns="http://www.w3.org/2000/svg">
<g id="Layer_1" clip-path="url(#clip0_803_38)">
<path id="Vector" d="M31.34 136.139C34.2605 134.232 36.1271 133.015 37.9915 131.795C40.6707 130.041 43.5976 129.285 45.6268 132.277C47.587 135.167 46.2079 137.682 43.4158 139.558C39.0155 142.514 34.7429 145.662 30.3195 148.582C25.7254 151.616 21.8248 149.625 21.7308 144.112C21.5862 135.622 21.8549 127.122 21.5735 118.639C21.5021 116.486 20.549 113.882 19.0981 112.329C0.233428 92.1273 -4.67623 68.5825 4.46054 43.0136C13.2531 18.4084 31.9639 4.3705 57.7698 0.65184C96.3862 -4.9125 131.165 25.8856 131.947 64.8427C132.566 95.6411 110.838 124.525 78.685 130.771C77.0626 131.086 75.3925 131.209 73.738 131.297C70.8676 131.45 69.0161 130.132 68.8156 127.192C68.6071 124.134 70.0982 122.567 73.2771 122.13C88.1811 120.08 100.276 113.03 109.946 101.514C129.796 77.8764 125.534 40.1527 100.786 21.464C73.7038 1.01296 37.0291 7.31994 18.541 35.6082C3.82589 58.1236 7.51815 88.4627 27.4427 106.86C30.2954 109.494 31.499 112.181 31.3901 115.942C31.2067 122.282 31.34 128.631 31.34 136.139Z" fill="black"/>
<path id="Vector_2" d="M49.6871 47.6675C44.5657 51.8435 43.7999 56.6014 47.879 60.8999C55.3828 68.8073 63.1242 76.5021 71.0201 84.0192C74.9954 87.8038 79.2396 87.3409 84.1571 83.25C83.0194 81.8938 81.2701 80.6855 80.8911 79.1411C80.3836 77.0719 80.1152 73.916 81.273 72.7651C82.36 71.685 85.4362 72.6017 87.6366 72.6602C87.7484 72.6631 87.8763 72.8419 87.9611 72.9636C90.5959 76.7401 96.7002 78.472 95.5767 84.3936C94.6973 89.0292 85.1288 95.4158 79.6814 95.8292C73.1273 96.3267 67.6205 94.5136 62.9503 89.5861C56.1802 82.4429 49.063 75.6278 42.065 68.702C32.7373 59.4706 34.3955 45.2699 46.6956 36.9313C47.9467 36.0832 51.1564 36.7658 52.614 37.8606C55.7319 40.2024 58.7318 42.9837 60.9087 46.1786C62.0181 47.8069 62.1079 51.2167 61.1192 52.9361C59.5817 55.6106 56.6583 55.0504 54.4968 52.9902C52.7553 51.3301 51.2533 49.4196 49.6871 47.6675Z" fill="black"/>
</g>
<defs>
<clipPath id="clip0_803_38">
<rect width="131.96" height="150" fill="white"/>
</clipPath>
</defs>
</svg>
